<svg xmlns="http://www.w3.org/2000/svg" viewBox="0 0 700 394" width="100%" height="100%">
  <defs>
    <style><![CDATA[
      * {
        box-sizing: border-box;
      }
      
      /* Grid background styling */
      .bg-grid {
        fill: #050608;
      }
      .grid-line {
        stroke: #141920;
        stroke-width: 1;
      }
      
      /* Axes Animation (Initial Empty State at T=0) */
      .axes-group {
        opacity: 0;
        animation: animAxesReplica 11.0s cubic-bezier(0.16, 1, 0.3, 1) infinite;
      }
      @keyframes animAxesReplica {
        0%, 2.5% {
          opacity: 0;
          transform: scaleY(0.9);
        }
        4.5%, 94.5% {
          opacity: 1;
          transform: scaleY(1);
        }
        97.0%, 100% {
          opacity: 0;
          transform: scaleY(0.9);
        }
      }

      .axis-main {
        stroke: #15FF05;
        stroke-width: 3.5;
        stroke-linecap: round;
        stroke-linejoin: round;
      }
      .axis-3d {
        stroke: #0bb803;
        stroke-width: 2;
        stroke-linecap: round;
      }
      
      /* Moving Average Lines */
      .ma-green {
        fill: none;
        stroke: #25FF05;
        stroke-width: 1.8;
        stroke-dasharray: 1000;
        stroke-dashoffset: 1000;
        animation: drawMAGreen 11.0s linear infinite;
      }
      .ma-yellow {
        fill: none;
        stroke: #FFE505;
        stroke-width: 1.8;
        stroke-dasharray: 1000;
        stroke-dashoffset: 1000;
        animation: drawMAYellow 11.0s linear infinite;
      }
      .ma-red {
        fill: none;
        stroke: #FF1515;
        stroke-width: 1.8;
        stroke-dasharray: 1000;
        stroke-dashoffset: 1000;
        animation: drawMARed 11.0s linear infinite;
      }
      
      @keyframes drawMAGreen {
        0%, 4.8% { stroke-dashoffset: 1000; opacity: 0; }
        6.0% { opacity: 1; }
        94.5% { stroke-dashoffset: 0; opacity: 1; }
        97%, 100% { stroke-dashoffset: 0; opacity: 0; }
      }
      
      @keyframes drawMAYellow {
        0%, 21.8% { stroke-dashoffset: 1000; opacity: 0; }
        23.0% { opacity: 1; }
        94.5% { stroke-dashoffset: 0; opacity: 1; }
        97%, 100% { stroke-dashoffset: 0; opacity: 0; }
      }
      
      @keyframes drawMARed {
        0%, 12.7% { stroke-dashoffset: 1000; opacity: 0; }
        14.0% { opacity: 1; }
        94.5% { stroke-dashoffset: 0; opacity: 1; }
        97%, 100% { stroke-dashoffset: 0; opacity: 0; }
      }
      
      
      .candle-1 {
        opacity: 0;
        transform: scaleY(0);
        transform-origin: 100.0px 354px;
        animation: anim_candle-1 11.0s cubic-bezier(0.2, 1, 0.4, 1) infinite;
      }
      @keyframes anim_candle-1 {
        0%, 4.82% {
          opacity: 0;
          transform: scaleY(0);
        }
        6.62% {
          opacity: 1;
          transform: scaleY(1.05);
        }
        7.82%, 94.5% {
          opacity: 1;
          transform: scaleY(1);
        }
        97.0%, 100% {
          opacity: 0;
          transform: scaleY(0);
        }
      }
      .candle-2 {
        opacity: 0;
        transform: scaleY(0);
        transform-origin: 124.0px 332px;
        animation: anim_candle-2 11.0s cubic-bezier(0.2, 1, 0.4, 1) infinite;
      }
      @keyframes anim_candle-2 {
        0%, 7.91% {
          opacity: 0;
          transform: scaleY(0);
        }
        9.71% {
          opacity: 1;
          transform: scaleY(1.05);
        }
        10.91%, 94.5% {
          opacity: 1;
          transform: scaleY(1);
        }
        97.0%, 100% {
          opacity: 0;
          transform: scaleY(0);
        }
      }
      .candle-3 {
        opacity: 0;
        transform: scaleY(0);
        transform-origin: 147.0px 311px;
        animation: anim_candle-3 11.0s cubic-bezier(0.2, 1, 0.4, 1) infinite;
      }
      @keyframes anim_candle-3 {
        0%, 12.73% {
          opacity: 0;
          transform: scaleY(0);
        }
        14.53% {
          opacity: 1;
          transform: scaleY(1.05);
        }
        15.73%, 94.5% {
          opacity: 1;
          transform: scaleY(1);
        }
        97.0%, 100% {
          opacity: 0;
          transform: scaleY(0);
        }
      }
      .candle-4 {
        opacity: 0;
        transform: scaleY(0);
        transform-origin: 170.0px 333px;
        animation: anim_candle-4 11.0s cubic-bezier(0.2, 1, 0.4, 1) infinite;
      }
      @keyframes anim_candle-4 {
        0%, 17.64% {
          opacity: 0;
          transform: scaleY(0);
        }
        19.44% {
          opacity: 1;
          transform: scaleY(1.05);
        }
        20.64%, 94.5% {
          opacity: 1;
          transform: scaleY(1);
        }
        97.0%, 100% {
          opacity: 0;
          transform: scaleY(0);
        }
      }
      .candle-5 {
        opacity: 0;
        transform: scaleY(0);
        transform-origin: 195.5px 333px;
        animation: anim_candle-5 11.0s cubic-bezier(0.2, 1, 0.4, 1) infinite;
      }
      @keyframes anim_candle-5 {
        0%, 21.82% {
          opacity: 0;
          transform: scaleY(0);
        }
        23.62% {
          opacity: 1;
          transform: scaleY(1.05);
        }
        24.82%, 94.5% {
          opacity: 1;
          transform: scaleY(1);
        }
        97.0%, 100% {
          opacity: 0;
          transform: scaleY(0);
        }
      }
      .candle-6 {
        opacity: 0;
        transform: scaleY(0);
        transform-origin: 219.0px 293px;
        animation: anim_candle-6 11.0s cubic-bezier(0.2, 1, 0.4, 1) infinite;
      }
      @keyframes anim_candle-6 {
        0%, 26.09% {
          opacity: 0;
          transform: scaleY(0);
        }
        27.89% {
          opacity: 1;
          transform: scaleY(1.05);
        }
        29.09%, 94.5% {
          opacity: 1;
          transform: scaleY(1);
        }
        97.0%, 100% {
          opacity: 0;
          transform: scaleY(0);
        }
      }
      .candle-7 {
        opacity: 0;
        transform: scaleY(0);
        transform-origin: 242.0px 261px;
        animation: anim_candle-7 11.0s cubic-bezier(0.2, 1, 0.4, 1) infinite;
      }
      @keyframes anim_candle-7 {
        0%, 30.91% {
          opacity: 0;
          transform: scaleY(0);
        }
        32.71% {
          opacity: 1;
          transform: scaleY(1.05);
        }
        33.91%, 94.5% {
          opacity: 1;
          transform: scaleY(1);
        }
        97.0%, 100% {
          opacity: 0;
          transform: scaleY(0);
        }
      }
      .candle-8 {
        opacity: 0;
        transform: scaleY(0);
        transform-origin: 265.0px 279px;
        animation: anim_candle-8 11.0s cubic-bezier(0.2, 1, 0.4, 1) infinite;
      }
      @keyframes anim_candle-8 {
        0%, 35.18% {
          opacity: 0;
          transform: scaleY(0);
        }
        36.98% {
          opacity: 1;
          transform: scaleY(1.05);
        }
        38.18%, 94.5% {
          opacity: 1;
          transform: scaleY(1);
        }
        97.0%, 100% {
          opacity: 0;
          transform: scaleY(0);
        }
      }
      .candle-9 {
        opacity: 0;
        transform: scaleY(0);
        transform-origin: 289.0px 295px;
        animation: anim_candle-9 11.0s cubic-bezier(0.2, 1, 0.4, 1) infinite;
      }
      @keyframes anim_candle-9 {
        0%, 39.45% {
          opacity: 0;
          transform: scaleY(0);
        }
        41.25% {
          opacity: 1;
          transform: scaleY(1.05);
        }
        42.45%, 94.5% {
          opacity: 1;
          transform: scaleY(1);
        }
        97.0%, 100% {
          opacity: 0;
          transform: scaleY(0);
        }
      }
      .candle-10 {
        opacity: 0;
        transform: scaleY(0);
        transform-origin: 314.5px 295px;
        animation: anim_candle-10 11.0s cubic-bezier(0.2, 1, 0.4, 1) infinite;
      }
      @keyframes anim_candle-10 {
        0%, 44.27% {
          opacity: 0;
          transform: scaleY(0);
        }
        46.07% {
          opacity: 1;
          transform: scaleY(1.05);
        }
        47.27%, 94.5% {
          opacity: 1;
          transform: scaleY(1);
        }
        97.0%, 100% {
          opacity: 0;
          transform: scaleY(0);
        }
      }
      .candle-11 {
        opacity: 0;
        transform: scaleY(0);
        transform-origin: 337.0px 243px;
        animation: anim_candle-11 11.0s cubic-bezier(0.2, 1, 0.4, 1) infinite;
      }
      @keyframes anim_candle-11 {
        0%, 49.18% {
          opacity: 0;
          transform: scaleY(0);
        }
        50.98% {
          opacity: 1;
          transform: scaleY(1.05);
        }
        52.18%, 94.5% {
          opacity: 1;
          transform: scaleY(1);
        }
        97.0%, 100% {
          opacity: 0;
          transform: scaleY(0);
        }
      }
      .candle-12 {
        opacity: 0;
        transform: scaleY(0);
        transform-origin: 364.0px 219px;
        animation: anim_candle-12 11.0s cubic-bezier(0.2, 1, 0.4, 1) infinite;
      }
      @keyframes anim_candle-12 {
        0%, 52.82% {
          opacity: 0;
          transform: scaleY(0);
        }
        54.62% {
          opacity: 1;
          transform: scaleY(1.05);
        }
        55.82%, 94.5% {
          opacity: 1;
          transform: scaleY(1);
        }
        97.0%, 100% {
          opacity: 0;
          transform: scaleY(0);
        }
      }
      .candle-13 {
        opacity: 0;
        transform: scaleY(0);
        transform-origin: 388.0px 203px;
        animation: anim_candle-13 11.0s cubic-bezier(0.2, 1, 0.4, 1) infinite;
      }
      @keyframes anim_candle-13 {
        0%, 57.64% {
          opacity: 0;
          transform: scaleY(0);
        }
        59.44% {
          opacity: 1;
          transform: scaleY(1.05);
        }
        60.64%, 94.5% {
          opacity: 1;
          transform: scaleY(1);
        }
        97.0%, 100% {
          opacity: 0;
          transform: scaleY(0);
        }
      }
      .candle-14 {
        opacity: 0;
        transform: scaleY(0);
        transform-origin: 412.5px 203px;
        animation: anim_candle-14 11.0s cubic-bezier(0.2, 1, 0.4, 1) infinite;
      }
      @keyframes anim_candle-14 {
        0%, 62.45% {
          opacity: 0;
          transform: scaleY(0);
        }
        64.25% {
          opacity: 1;
          transform: scaleY(1.05);
        }
        65.45%, 94.5% {
          opacity: 1;
          transform: scaleY(1);
        }
        97.0%, 100% {
          opacity: 0;
          transform: scaleY(0);
        }
      }
      .candle-15 {
        opacity: 0;
        transform: scaleY(0);
        transform-origin: 435.0px 165px;
        animation: anim_candle-15 11.0s cubic-bezier(0.2, 1, 0.4, 1) infinite;
      }
      @keyframes anim_candle-15 {
        0%, 67.36% {
          opacity: 0;
          transform: scaleY(0);
        }
        69.16% {
          opacity: 1;
          transform: scaleY(1.05);
        }
        70.36%, 94.5% {
          opacity: 1;
          transform: scaleY(1);
        }
        97.0%, 100% {
          opacity: 0;
          transform: scaleY(0);
        }
      }
      .candle-16 {
        opacity: 0;
        transform: scaleY(0);
        transform-origin: 460.0px 137px;
        animation: anim_candle-16 11.0s cubic-bezier(0.2, 1, 0.4, 1) infinite;
      }
      @keyframes anim_candle-16 {
        0%, 72.18% {
          opacity: 0;
          transform: scaleY(0);
        }
        73.98% {
          opacity: 1;
          transform: scaleY(1.05);
        }
        75.18%, 94.5% {
          opacity: 1;
          transform: scaleY(1);
        }
        97.0%, 100% {
          opacity: 0;
          transform: scaleY(0);
        }
      }
      .candle-17 {
        opacity: 0;
        transform: scaleY(0);
        transform-origin: 483.0px 121px;
        animation: anim_candle-17 11.0s cubic-bezier(0.2, 1, 0.4, 1) infinite;
      }
      @keyframes anim_candle-17 {
        0%, 77.09% {
          opacity: 0;
          transform: scaleY(0);
        }
        78.89% {
          opacity: 1;
          transform: scaleY(1.05);
        }
        80.09%, 94.5% {
          opacity: 1;
          transform: scaleY(1);
        }
        97.0%, 100% {
          opacity: 0;
          transform: scaleY(0);
        }
      }
      .candle-18 {
        opacity: 0;
        transform: scaleY(0);
        transform-origin: 508.0px 163px;
        animation: anim_candle-18 11.0s cubic-bezier(0.2, 1, 0.4, 1) infinite;
      }
      @keyframes anim_candle-18 {
        0%, 81.91% {
          opacity: 0;
          transform: scaleY(0);
        }
        83.71% {
          opacity: 1;
          transform: scaleY(1.05);
        }
        84.91%, 94.5% {
          opacity: 1;
          transform: scaleY(1);
        }
        97.0%, 100% {
          opacity: 0;
          transform: scaleY(0);
        }
      }
      .candle-19 {
        opacity: 0;
        transform: scaleY(0);
        transform-origin: 532.0px 163px;
        animation: anim_candle-19 11.0s cubic-bezier(0.2, 1, 0.4, 1) infinite;
      }
      @keyframes anim_candle-19 {
        0%, 86.73% {
          opacity: 0;
          transform: scaleY(0);
        }
        88.53% {
          opacity: 1;
          transform: scaleY(1.05);
        }
        89.73%, 94.5% {
          opacity: 1;
          transform: scaleY(1);
        }
        97.0%, 100% {
          opacity: 0;
          transform: scaleY(0);
        }
      }
      .candle-20 {
        opacity: 0;
        transform: scaleY(0);
        transform-origin: 554.0px 125px;
        animation: anim_candle-20 11.0s cubic-bezier(0.2, 1, 0.4, 1) infinite;
      }
      @keyframes anim_candle-20 {
        0%, 91.64% {
          opacity: 0;
          transform: scaleY(0);
        }
        93.44% {
          opacity: 1;
          transform: scaleY(1.05);
        }
        94.5%, 94.5% {
          opacity: 1;
          transform: scaleY(1);
        }
        97.0%, 100% {
          opacity: 0;
          transform: scaleY(0);
        }
      }
    ]]></style>
  </defs>

  <!-- Background Dark Grid -->
  <rect class="bg-grid" width="700" height="394" />
  
  <!-- Grid Lines (Always Visible) -->
  <g class="grid-lines">
    <!-- Vertical Grid Lines -->
    <line class="grid-line" x1="0" y1="0" x2="0" y2="394" />
    <line class="grid-line" x1="25" y1="0" x2="25" y2="394" />
    <line class="grid-line" x1="50" y1="0" x2="50" y2="394" />
    <line class="grid-line" x1="75" y1="0" x2="75" y2="394" />
    <line class="grid-line" x1="100" y1="0" x2="100" y2="394" />
    <line class="grid-line" x1="125" y1="0" x2="125" y2="394" />
    <line class="grid-line" x1="150" y1="0" x2="150" y2="394" />
    <line class="grid-line" x1="175" y1="0" x2="175" y2="394" />
    <line class="grid-line" x1="200" y1="0" x2="200" y2="394" />
    <line class="grid-line" x1="225" y1="0" x2="225" y2="394" />
    <line class="grid-line" x1="250" y1="0" x2="250" y2="394" />
    <line class="grid-line" x1="275" y1="0" x2="275" y2="394" />
    <line class="grid-line" x1="300" y1="0" x2="300" y2="394" />
    <line class="grid-line" x1="325" y1="0" x2="325" y2="394" />
    <line class="grid-line" x1="350" y1="0" x2="350" y2="394" />
    <line class="grid-line" x1="375" y1="0" x2="375" y2="394" />
    <line class="grid-line" x1="400" y1="0" x2="400" y2="394" />
    <line class="grid-line" x1="425" y1="0" x2="425" y2="394" />
    <line class="grid-line" x1="450" y1="0" x2="450" y2="394" />
    <line class="grid-line" x1="475" y1="0" x2="475" y2="394" />
    <line class="grid-line" x1="500" y1="0" x2="500" y2="394" />
    <line class="grid-line" x1="525" y1="0" x2="525" y2="394" />
    <line class="grid-line" x1="550" y1="0" x2="550" y2="394" />
    <line class="grid-line" x1="575" y1="0" x2="575" y2="394" />
    <line class="grid-line" x1="600" y1="0" x2="600" y2="394" />
    <line class="grid-line" x1="625" y1="0" x2="625" y2="394" />
    <line class="grid-line" x1="650" y1="0" x2="650" y2="394" />
    <line class="grid-line" x1="675" y1="0" x2="675" y2="394" />
    <line class="grid-line" x1="700" y1="0" x2="700" y2="394" />
    <!-- Horizontal Grid Lines -->
    <line class="grid-line" x1="0" y1="0" x2="700" y2="0" />
    <line class="grid-line" x1="0" y1="25" x2="700" y2="25" />
    <line class="grid-line" x1="0" y1="50" x2="700" y2="50" />
    <line class="grid-line" x1="0" y1="75" x2="700" y2="75" />
    <line class="grid-line" x1="0" y1="100" x2="700" y2="100" />
    <line class="grid-line" x1="0" y1="125" x2="700" y2="125" />
    <line class="grid-line" x1="0" y1="150" x2="700" y2="150" />
    <line class="grid-line" x1="0" y1="175" x2="700" y2="175" />
    <line class="grid-line" x1="0" y1="200" x2="700" y2="200" />
    <line class="grid-line" x1="0" y1="225" x2="700" y2="225" />
    <line class="grid-line" x1="0" y1="250" x2="700" y2="250" />
    <line class="grid-line" x1="0" y1="275" x2="700" y2="275" />
    <line class="grid-line" x1="0" y1="300" x2="700" y2="300" />
    <line class="grid-line" x1="0" y1="325" x2="700" y2="325" />
    <line class="grid-line" x1="0" y1="350" x2="700" y2="350" />
    <line class="grid-line" x1="0" y1="375" x2="700" y2="375" />
  </g>

  <!-- 3D Perspective Base Origin Lines -->
  <g class="axes-group">
    <!-- 3D Depth Origin Rays -->
    <line class="axis-3d" x1="60" y1="365" x2="10" y2="385" />
    <line class="axis-3d" x1="60" y1="30" x2="10" y2="50" />
    <line class="axis-3d" x1="10" y1="385" x2="588" y2="385" />
    <line class="axis-3d" x1="638" y1="365" x2="588" y2="385" />
    
    <!-- Y Axis -->
    <line class="axis-main" x1="60" y1="30" x2="60" y2="365" />
    <!-- X Axis -->
    <line class="axis-main" x1="60" y1="365" x2="638" y2="365" />
  </g>

  <!-- Candlesticks Layer -->
  <g class="candlestick-layer">
    
    <!-- Candle 1 (GREEN) -->
    <g class="candle-1">
      <!-- Front Face -->
      <rect x="94" y="328" width="12" height="27" fill="#29FF08" />
      <!-- Right 3D Side Face -->
      <polygon points="106,328 110,324 110,350 106,354" fill="#1fb805" />
      <!-- Top 3D Face -->
      <polygon points="94,328 98,324 110,324 106,328" fill="#45ff29" />
    </g>
    <!-- Candle 2 (GREEN) -->
    <g class="candle-2">
      <!-- Front Face -->
      <rect x="118" y="272" width="12" height="61" fill="#29FF08" />
      <!-- Right 3D Side Face -->
      <polygon points="130,272 134,268 134,328 130,332" fill="#1fb805" />
      <!-- Top 3D Face -->
      <polygon points="118,272 122,268 134,268 130,272" fill="#45ff29" />
    </g>
    <!-- Candle 3 (RED) -->
    <g class="candle-3">
      <!-- Front Face -->
      <rect x="142" y="272" width="10" height="40" fill="#FF1515" />
      <!-- Right 3D Side Face -->
      <polygon points="152,272 156,268 156,307 152,311" fill="#b80505" />
      <!-- Top 3D Face -->
      <polygon points="142,272 146,268 156,268 152,272" fill="#ff4242" />
    </g>
    <!-- Candle 4 (RED) -->
    <g class="candle-4">
      <!-- Front Face -->
      <rect x="164" y="312" width="12" height="22" fill="#FF1515" />
      <!-- Right 3D Side Face -->
      <polygon points="176,312 180,308 180,329 176,333" fill="#b80505" />
      <!-- Top 3D Face -->
      <polygon points="164,312 168,308 180,308 176,312" fill="#ff4242" />
    </g>
    <!-- Candle 5 (GREEN) -->
    <g class="candle-5">
      <!-- Front Face -->
      <rect x="190" y="273" width="11" height="61" fill="#29FF08" />
      <!-- Right 3D Side Face -->
      <polygon points="201,273 205,269 205,329 201,333" fill="#1fb805" />
      <!-- Top 3D Face -->
      <polygon points="190,273 194,269 205,269 201,273" fill="#45ff29" />
    </g>
    <!-- Candle 6 (GREEN) -->
    <g class="candle-6">
      <!-- Front Face -->
      <rect x="214" y="251" width="10" height="43" fill="#29FF08" />
      <!-- Right 3D Side Face -->
      <polygon points="224,251 228,247 228,289 224,293" fill="#1fb805" />
      <!-- Top 3D Face -->
      <polygon points="214,251 218,247 228,247 224,251" fill="#45ff29" />
    </g>
    <!-- Candle 7 (GREEN) -->
    <g class="candle-7">
      <!-- Front Face -->
      <rect x="236" y="230" width="12" height="32" fill="#29FF08" />
      <!-- Right 3D Side Face -->
      <polygon points="248,230 252,226 252,257 248,261" fill="#1fb805" />
      <!-- Top 3D Face -->
      <polygon points="236,230 240,226 252,226 248,230" fill="#45ff29" />
    </g>
    <!-- Candle 8 (RED) -->
    <g class="candle-8">
      <!-- Front Face -->
      <rect x="260" y="232" width="10" height="48" fill="#FF1515" />
      <!-- Right 3D Side Face -->
      <polygon points="270,232 274,228 274,275 270,279" fill="#b80505" />
      <!-- Top 3D Face -->
      <polygon points="260,232 264,228 274,228 270,232" fill="#ff4242" />
    </g>
    <!-- Candle 9 (RED) -->
    <g class="candle-9">
      <!-- Front Face -->
      <rect x="284" y="254" width="10" height="42" fill="#FF1515" />
      <!-- Right 3D Side Face -->
      <polygon points="294,254 298,250 298,291 294,295" fill="#b80505" />
      <!-- Top 3D Face -->
      <polygon points="284,254 288,250 298,250 294,254" fill="#ff4242" />
    </g>
    <!-- Candle 10 (GREEN) -->
    <g class="candle-10">
      <!-- Front Face -->
      <rect x="309" y="168" width="11" height="128" fill="#29FF08" />
      <!-- Right 3D Side Face -->
      <polygon points="320,168 324,164 324,291 320,295" fill="#1fb805" />
      <!-- Top 3D Face -->
      <polygon points="309,168 313,164 324,164 320,168" fill="#45ff29" />
    </g>
    <!-- Candle 11 (GREEN) -->
    <g class="candle-11">
      <!-- Front Face -->
      <rect x="332" y="153" width="10" height="91" fill="#29FF08" />
      <!-- Right 3D Side Face -->
      <polygon points="342,153 346,149 346,239 342,243" fill="#1fb805" />
      <!-- Top 3D Face -->
      <polygon points="332,153 336,149 346,149 342,153" fill="#45ff29" />
    </g>
    <!-- Candle 12 (GREEN) -->
    <g class="candle-12">
      <!-- Front Face -->
      <rect x="358" y="136" width="12" height="84" fill="#29FF08" />
      <!-- Right 3D Side Face -->
      <polygon points="370,136 374,132 374,215 370,219" fill="#1fb805" />
      <!-- Top 3D Face -->
      <polygon points="358,136 362,132 374,132 370,136" fill="#45ff29" />
    </g>
    <!-- Candle 13 (RED) -->
    <g class="candle-13">
      <!-- Front Face -->
      <rect x="382" y="172" width="12" height="32" fill="#FF1515" />
      <!-- Right 3D Side Face -->
      <polygon points="394,172 398,168 398,199 394,203" fill="#b80505" />
      <!-- Top 3D Face -->
      <polygon points="382,172 386,168 398,168 394,172" fill="#ff4242" />
    </g>
    <!-- Candle 14 (GREEN) -->
    <g class="candle-14">
      <!-- Front Face -->
      <rect x="407" y="125" width="11" height="79" fill="#29FF08" />
      <!-- Right 3D Side Face -->
      <polygon points="418,125 422,121 422,199 418,203" fill="#1fb805" />
      <!-- Top 3D Face -->
      <polygon points="407,125 411,121 422,121 418,125" fill="#45ff29" />
    </g>
    <!-- Candle 15 (GREEN) -->
    <g class="candle-15">
      <!-- Front Face -->
      <rect x="430" y="136" width="10" height="30" fill="#29FF08" />
      <!-- Right 3D Side Face -->
      <polygon points="440,136 444,132 444,161 440,165" fill="#1fb805" />
      <!-- Top 3D Face -->
      <polygon points="430,136 434,132 444,132 440,136" fill="#45ff29" />
    </g>
    <!-- Candle 16 (GREEN) -->
    <g class="candle-16">
      <!-- Front Face -->
      <rect x="454" y="100" width="12" height="38" fill="#29FF08" />
      <!-- Right 3D Side Face -->
      <polygon points="466,100 470,96 470,133 466,137" fill="#1fb805" />
      <!-- Top 3D Face -->
      <polygon points="454,100 458,96 470,96 466,100" fill="#45ff29" />
    </g>
    <!-- Candle 17 (RED) -->
    <g class="candle-17">
      <!-- Front Face -->
      <rect x="478" y="100" width="10" height="22" fill="#FF1515" />
      <!-- Right 3D Side Face -->
      <polygon points="488,100 492,96 492,117 488,121" fill="#b80505" />
      <!-- Top 3D Face -->
      <polygon points="478,100 482,96 492,96 488,100" fill="#ff4242" />
    </g>
    <!-- Candle 18 (RED) -->
    <g class="candle-18">
      <!-- Front Face -->
      <rect x="502" y="124" width="12" height="40" fill="#FF1515" />
      <!-- Right 3D Side Face -->
      <polygon points="514,124 518,120 518,159 514,163" fill="#b80505" />
      <!-- Top 3D Face -->
      <polygon points="502,124 506,120 518,120 514,124" fill="#ff4242" />
    </g>
    <!-- Candle 19 (GREEN) -->
    <g class="candle-19">
      <!-- Front Face -->
      <rect x="526" y="121" width="12" height="43" fill="#29FF08" />
      <!-- Right 3D Side Face -->
      <polygon points="538,121 542,117 542,159 538,163" fill="#1fb805" />
      <!-- Top 3D Face -->
      <polygon points="526,121 530,117 542,117 538,121" fill="#45ff29" />
    </g>
    <!-- Candle 20 (GREEN) -->
    <g class="candle-20">
      <!-- Front Face -->
      <rect x="548" y="91" width="12" height="35" fill="#29FF08" />
      <!-- Right 3D Side Face -->
      <polygon points="560,91 564,87 564,121 560,125" fill="#1fb805" />
      <!-- Top 3D Face -->
      <polygon points="548,91 552,87 564,87 560,91" fill="#45ff29" />
    </g>
  </g>

  <!-- Moving Average Trend Curves -->
  <g class="curves-layer">
    <!-- Red MA (Slow) -->
    <path class="ma-red" d="M 135 365 C 142.5 360.0, 163.2 346.7, 180 335 C 196.8 323.3, 218.7 306.7, 236 295 C 253.3 283.3, 268.0 277.2, 284 265 C 300.0 252.8, 311.5 236.5, 332 222 C 352.5 207.5, 382.7 190.8, 407 178 C 431.3 165.2, 458.2 151.7, 478 145 C 497.8 138.3, 509.0 140.2, 526 138 C 543.0 135.8, 557.7 134.7, 580 132 C 602.3 129.3, 646.7 123.7, 660 122" />
    <!-- Yellow MA (Medium) -->
    <path class="ma-yellow" d="M 180 365 C 185.7 358.8, 200.7 341.8, 214 328 C 227.3 314.2, 244.2 297.0, 260 282 C 275.8 267.0, 292.7 253.3, 309 238 C 325.3 222.7, 341.7 203.0, 358 190 C 374.3 177.0, 391.0 169.3, 407 160 C 423.0 150.7, 442.2 140.0, 454 134 C 465.8 128.0, 470.0 125.5, 478 124 C 486.0 122.5, 494.0 124.7, 502 125 C 510.0 125.3, 516.3 126.5, 526 126 C 535.7 125.5, 542.7 123.3, 560 122 C 577.3 120.7, 618.3 118.7, 630 118" />
    <!-- Green MA (Fast) -->
    <path class="ma-green" d="M 60 365 C 65.7 361.2, 84.3 352.5, 94 342 C 103.7 331.5, 110.0 310.7, 118 302 C 126.0 293.3, 134.3 287.0, 142 290 C 149.7 293.0, 156.0 317.5, 164 320 C 172.0 322.5, 181.7 313.0, 190 305 C 198.3 297.0, 206.3 282.0, 214 272 C 221.7 262.0, 228.3 247.8, 236 245 C 243.7 242.2, 252.0 250.2, 260 255 C 268.0 259.8, 275.8 278.2, 284 274 C 292.2 269.8, 301.0 242.7, 309 230 C 317.0 217.3, 323.8 206.7, 332 198 C 340.2 189.3, 349.7 179.8, 358 178 C 366.3 176.2, 373.8 189.3, 382 187 C 390.2 184.7, 399.0 170.2, 407 164 C 415.0 157.8, 422.2 157.7, 430 150 C 437.8 142.3, 446.0 124.7, 454 118 C 462.0 111.3, 470.0 105.8, 478 110 C 486.0 114.2, 494.0 137.7, 502 143 C 510.0 148.3, 518.3 147.8, 526 142 C 533.7 136.2, 537.3 113.7, 548 108 C 558.7 102.3, 578.0 107.7, 590 108 C 602.0 108.3, 615.0 109.7, 620 110" />
  </g>
</svg>